<?xml version="1.0" encoding="UTF-8"?>
<!DOCTYPE svg PUBLIC "-//W3C//DTD SVG 1.1//EN" "http://www.w3.org/Graphics/SVG/1.1/DTD/svg11.dtd">
<svg xmlns="http://www.w3.org/2000/svg" version="1.1" width="1000px" height="996px" style="shape-rendering:geometricPrecision; text-rendering:geometricPrecision; image-rendering:optimizeQuality; fill-rule:evenodd; clip-rule:evenodd" xmlns:xlink="http://www.w3.org/1999/xlink">
<g><path style="opacity:1" fill="#00a0dc" d="M -0.5,-0.5 C 151.833,-0.5 304.167,-0.5 456.5,-0.5C 456.5,43.8333 456.5,88.1667 456.5,132.5C 348.5,132.5 240.5,132.5 132.5,132.5C 131.501,238.999 131.167,345.665 131.5,452.5C 87.5,452.5 43.5,452.5 -0.5,452.5C -0.5,301.5 -0.5,150.5 -0.5,-0.5 Z"/></g>
<g><path style="opacity:1" fill="#ee2d35" d="M 544.5,-0.5 C 696.167,-0.5 847.833,-0.5 999.5,-0.5C 999.5,150.5 999.5,301.5 999.5,452.5C 955.5,452.5 911.5,452.5 867.5,452.5C 867.833,345.665 867.499,238.999 866.5,132.5C 759.335,131.501 652.001,131.167 544.5,131.5C 544.5,87.5 544.5,43.5 544.5,-0.5 Z"/></g>
<g><path style="opacity:0.8" fill="#eb2c35" d="M 542.5,-0.5 C 543.167,-0.5 543.833,-0.5 544.5,-0.5C 544.5,43.5 544.5,87.5 544.5,131.5C 652.001,131.167 759.335,131.501 866.5,132.5C 758.5,132.5 650.5,132.5 542.5,132.5C 542.5,88.1667 542.5,43.8333 542.5,-0.5 Z"/></g>
<g><path style="opacity:1" fill="#f22e37" d="M 866.5,132.5 C 867.499,238.999 867.833,345.665 867.5,452.5C 911.5,452.5 955.5,452.5 999.5,452.5C 999.5,453.167 999.5,453.833 999.5,454.5C 955.167,454.5 910.833,454.5 866.5,454.5C 866.5,347.167 866.5,239.833 866.5,132.5 Z"/></g>
<g><path style="opacity:0.871" fill="#00a4e1" d="M 132.5,132.5 C 132.5,239.833 132.5,347.167 132.5,454.5C 88.1667,454.5 43.8333,454.5 -0.5,454.5C -0.5,453.833 -0.5,453.167 -0.5,452.5C 43.5,452.5 87.5,452.5 131.5,452.5C 131.167,345.665 131.501,238.999 132.5,132.5 Z"/></g>
<g><path style="opacity:0.294" fill="#00374b" d="M 132.5,132.5 C 240.5,132.5 348.5,132.5 456.5,132.5C 349.001,133.499 241.335,133.833 133.5,133.5C 133.833,240.668 133.499,347.668 132.5,454.5C 132.5,347.167 132.5,239.833 132.5,132.5 Z"/></g>
<g><path style="opacity:0.416" fill="#521013" d="M 542.5,132.5 C 650.5,132.5 758.5,132.5 866.5,132.5C 866.5,239.833 866.5,347.167 866.5,454.5C 865.501,347.668 865.167,240.668 865.5,133.5C 757.665,133.833 649.999,133.499 542.5,132.5 Z"/></g>
<g><path style="opacity:1" fill="#76be42" d="M -0.5,542.5 C 43.5,542.5 87.5,542.5 131.5,542.5C 131.167,649.335 131.501,756.001 132.5,862.5C 239.665,863.499 346.999,863.833 454.5,863.5C 454.5,907.5 454.5,951.5 454.5,995.5C 302.833,995.5 151.167,995.5 -0.5,995.5C -0.5,844.5 -0.5,693.5 -0.5,542.5 Z"/></g>
<g><path style="opacity:0.871" fill="#79c244" d="M -0.5,540.5 C 43.8333,540.5 88.1667,540.5 132.5,540.5C 132.5,647.833 132.5,755.167 132.5,862.5C 131.501,756.001 131.167,649.335 131.5,542.5C 87.5,542.5 43.5,542.5 -0.5,542.5C -0.5,541.833 -0.5,541.167 -0.5,540.5 Z"/></g>
<g><path style="opacity:1" fill="#f4c824" d="M 866.5,540.5 C 910.833,540.5 955.167,540.5 999.5,540.5C 999.5,541.167 999.5,541.833 999.5,542.5C 955.5,542.5 911.5,542.5 867.5,542.5C 867.833,649.335 867.499,756.001 866.5,862.5C 866.5,755.167 866.5,647.833 866.5,540.5 Z"/></g>
<g><path style="opacity:1" fill="#fec422" d="M 999.5,542.5 C 999.5,693.5 999.5,844.5 999.5,995.5C 847.833,995.5 696.167,995.5 544.5,995.5C 544.5,951.5 544.5,907.5 544.5,863.5C 652.001,863.833 759.335,863.499 866.5,862.5C 867.499,756.001 867.833,649.335 867.5,542.5C 911.5,542.5 955.5,542.5 999.5,542.5 Z"/></g>
<g><path style="opacity:0.149" fill="#203412" d="M 132.5,540.5 C 133.499,647.332 133.833,754.332 133.5,861.5C 241.335,861.167 349.001,861.501 456.5,862.5C 348.5,862.5 240.5,862.5 132.5,862.5C 132.5,755.167 132.5,647.833 132.5,540.5 Z"/></g>
<g><path style="opacity:0.149" fill="#45350b" d="M 866.5,540.5 C 866.5,647.833 866.5,755.167 866.5,862.5C 758.5,862.5 650.5,862.5 542.5,862.5C 649.999,861.501 757.665,861.167 865.5,861.5C 865.167,754.332 865.501,647.332 866.5,540.5 Z"/></g>
<g><path style="opacity:0.796" fill="#74bb41" d="M 132.5,862.5 C 240.5,862.5 348.5,862.5 456.5,862.5C 456.5,906.833 456.5,951.167 456.5,995.5C 455.833,995.5 455.167,995.5 454.5,995.5C 454.5,951.5 454.5,907.5 454.5,863.5C 346.999,863.833 239.665,863.499 132.5,862.5 Z"/></g>
<g><path style="opacity:0.796" fill="#f1c122" d="M 542.5,862.5 C 650.5,862.5 758.5,862.5 866.5,862.5C 759.335,863.499 652.001,863.833 544.5,863.5C 544.5,907.5 544.5,951.5 544.5,995.5C 543.833,995.5 543.167,995.5 542.5,995.5C 542.5,951.167 542.5,906.833 542.5,862.5 Z"/></g>
</svg>
